<svg version="1.1" xmlns="http://www.w3.org/2000/svg" xmlns:xlink="http://www.w3.org/1999/xlink" width="3500.000000pt" height="4500.000000pt" viewBox="0,0,199.10001,256"><g fill="#ffffff" fill-rule="nonzero" stroke="none" stroke-width="1" stroke-linecap="butt" stroke-linejoin="miter" stroke-miterlimit="10" stroke-dasharray="" stroke-dashoffset="0" font-family="none" font-weight="none" font-size="none" text-anchor="none" style="mix-blend-mode: normal"><g transform="translate(-0.00443,-0.00979) scale(0.05689,0.05689)"><g transform="translate(0,4500) scale(0.1,-0.1)"><path d="M19940,41994c-25,-2 -117,-9 -205,-15c-1499,-102 -3276,-712 -4725,-1622c-927,-582 -1716,-1272 -2316,-2027c-1102,-1386 -1576,-2966 -1398,-4660c91,-870 366,-1820 756,-2613l88,-179l-25,-97c-64,-253 -90,-577 -66,-814c26,-247 96,-499 209,-746l59,-130l-39,-113c-244,-706 -221,-1615 59,-2353c136,-358 417,-906 654,-1278c301,-472 774,-1036 1229,-1467l136,-128l38,-98c130,-333 346,-811 510,-1129c652,-1266 1500,-2330 2469,-3096l152,-121l71,-146c39,-81 114,-228 167,-327l96,-180l60,-300c171,-855 322,-1877 347,-2355l6,-105l-69,-75c-161,-178 -443,-523 -688,-842l-119,-156l-306,-101c-324,-107 -601,-210 -764,-281l-98,-43l-102,26c-169,44 -280,58 -496,64c-607,16 -1149,-158 -1610,-516c-463,-360 -814,-985 -949,-1693c-40,-208 -53,-350 -58,-623c-7,-380 25,-685 108,-1025l30,-125l-232,-568l-232,-568l-15,33c-293,680 -713,1747 -877,2228c-193,570 -293,1091 -311,1628c-9,253 5,387 65,623c137,538 275,1353 321,1903c14,168 14,473 0,561c-52,324 -441,756 -988,1097l-112,70v182c0,200 12,551 35,1046c25,519 42,754 69,920c107,671 152,1552 105,2069l-12,126l37,114c79,245 155,581 191,851c23,167 31,532 15,669c-55,471 -269,822 -578,947c-102,41 -196,57 -342,56c-162,0 -249,-19 -385,-86c-266,-131 -436,-395 -508,-787c-20,-114 -22,-153 -21,-469c1,-422 27,-707 101,-1073l25,-128l-31,-95c-61,-183 -104,-419 -138,-754c-26,-263 -26,-970 1,-1200c11,-91 20,-178 19,-195c0,-16 -14,-82 -30,-145c-42,-158 -69,-352 -89,-644l-7,-100l-67,200c-112,334 -224,580 -354,778c-54,82 -66,108 -71,155c-47,393 -327,1121 -607,1572c-64,103 -65,105 -77,209c-34,292 -199,947 -319,1271c-195,524 -588,875 -1003,896c-216,11 -392,-51 -538,-190c-257,-247 -328,-737 -191,-1312c95,-399 324,-884 576,-1219c75,-99 77,-103 101,-211c90,-400 263,-883 433,-1210c42,-82 89,-172 103,-200c14,-27 35,-97 47,-155c58,-278 249,-822 431,-1228l68,-152l-47,-63c-26,-34 -54,-73 -63,-87c-16,-24 -18,-25 -215,-32c-302,-10 -491,-34 -604,-77c-138,-52 -353,-265 -478,-473c-168,-278 -208,-544 -121,-813c84,-263 332,-631 640,-950c81,-84 109,-121 169,-230c89,-159 255,-411 347,-525c96,-120 234,-255 333,-327l85,-62l44,-133c102,-314 204,-550 320,-747c190,-321 431,-574 728,-764c40,-26 79,-57 88,-71c31,-46 127,-280 181,-440c183,-536 351,-1258 594,-2550c317,-1678 575,-2934 800,-3891c74,-313 99,-403 151,-535c250,-643 883,-1374 1674,-1936c66,-47 149,-109 185,-139c77,-65 200,-129 290,-151c90,-23 243,-15 325,16c203,76 375,279 460,540c9,30 39,94 66,141c135,239 255,509 589,1329c120,294 269,654 330,800c356,846 543,1435 760,2400c12,52 57,267 100,478l79,383l70,92c39,51 81,105 94,121l23,28l18,-78c89,-396 238,-854 365,-1128l41,-89l-11,-136c-27,-317 14,-703 106,-1011c19,-64 22,-87 14,-108c-73,-190 -82,-524 -23,-812c15,-69 26,-129 25,-135c0,-5 -16,-55 -35,-110c-58,-168 -71,-266 -70,-535c1,-164 5,-259 16,-315c13,-71 13,-90 0,-185c-12,-78 -16,-197 -16,-465c-1,-371 7,-496 44,-685c33,-169 61,-224 135,-260l45,-22l3543,-73c4262,-89 3934,-84 3973,-63c82,44 117,122 159,358c40,219 56,391 62,640c4,195 2,247 -11,305c-37,158 -40,211 -22,365c37,325 39,359 27,510c-13,158 -29,245 -65,366l-23,79l24,95c20,76 26,128 30,261c6,176 -2,267 -43,529c-31,199 -30,256 2,366c80,270 92,375 73,609c-24,284 -23,298 58,555c70,221 159,528 227,785l35,130v-106c1,-58 -8,-186 -19,-285c-86,-780 -87,-1518 -2,-2125c17,-122 17,-131 -4,-385c-84,-982 -90,-1637 -23,-2199c44,-374 160,-847 226,-926c15,-18 45,-40 68,-50c38,-18 92,-19 1060,-19c968,0 1022,1 1060,19c75,34 125,117 185,308c121,388 177,994 167,1813c-7,560 -32,888 -88,1148c-19,89 -20,96 -4,165c106,466 177,958 217,1512c19,273 16,1107 -5,1415c-20,283 -58,667 -88,888l-20,153l30,237c94,740 106,1205 42,1647c-95,648 -370,1167 -805,1518c-393,316 -855,505 -1426,582c-243,33 -661,30 -877,-6c-62,-11 -63,-11 -122,25c-148,90 -277,139 -586,220c-269,71 -350,97 -460,151c-163,78 -295,221 -546,590c-165,243 -237,340 -331,447l-68,77v61c0,98 87,842 151,1285c61,428 145,880 226,1220c33,139 41,161 119,305c45,85 124,239 174,341l91,186l127,100c598,471 1156,1057 1644,1728c502,689 936,1482 1313,2400l86,210l273,275c302,305 464,483 661,730c351,439 589,818 854,1360c241,494 342,784 405,1162c42,247 51,360 50,638c0,413 -49,728 -165,1071l-40,117l39,79c246,490 302,1024 166,1594l-25,107l50,100c78,155 191,410 264,592c477,1204 657,2426 521,3540c-154,1268 -708,2452 -1649,3530c-153,175 -571,591 -750,747c-793,691 -1705,1268 -2700,1711c-1091,485 -2203,784 -3265,877c-169,15 -628,27 -720,19zM20440,41590c1170,-72 2433,-422 3645,-1009c850,-412 1607,-911 2290,-1510c160,-140 596,-576 728,-729c605,-695 1016,-1397 1277,-2182c394,-1182 384,-2447 -30,-3805c-97,-319 -308,-880 -325,-863c-2,2 -10,79 -16,171c-27,407 45,1022 199,1682c22,94 43,184 46,200c11,47 -117,-271 -191,-475c-307,-858 -412,-1534 -319,-2073c14,-81 30,-156 35,-166c17,-31 70,-251 88,-362c22,-142 22,-429 0,-564c-18,-102 -64,-284 -77,-298c-3,-4 -12,57 -19,135c-30,356 -71,577 -196,1073c-145,572 -172,758 -162,1114c7,246 23,358 118,836c182,913 237,1399 210,1870c-34,577 -163,1010 -439,1466c-73,122 -307,477 -325,494c-6,6 -4,-1 5,-15c58,-95 244,-450 304,-579c264,-572 333,-1070 243,-1774c-45,-357 -118,-675 -298,-1308c-165,-580 -197,-720 -227,-1000c-22,-208 -15,-566 16,-803c21,-159 22,-174 7,-247c-21,-106 -56,-178 -119,-245c-61,-65 -115,-99 -197,-124c-125,-39 -251,-36 -581,16c-85,13 -234,29 -330,35c-210,13 -600,7 -725,-12l-90,-14l210,-6c476,-14 866,-112 1277,-320c528,-268 947,-721 1161,-1255c248,-617 244,-1470 -10,-2154c-76,-204 -301,-672 -446,-930c-232,-411 -502,-784 -856,-1179c-162,-182 -602,-620 -686,-684c-691,-526 -1155,-1018 -1489,-1577l-57,-95l53,60c317,358 625,625 1028,890c85,56 172,112 193,124l37,23l-10,-26c-71,-186 -384,-814 -558,-1117c-433,-754 -867,-1330 -1437,-1908c-315,-318 -364,-359 -223,-185c529,656 940,1292 1264,1959c96,197 254,546 254,561c0,3 -65,-101 -143,-232c-394,-655 -769,-1178 -1143,-1594c-146,-163 -363,-385 -332,-340c13,19 63,89 110,155c114,160 256,378 362,555c106,177 267,490 252,490c-2,0 -23,-28 -47,-62c-78,-114 -191,-260 -283,-367c-112,-132 -350,-375 -354,-363c-1,5 16,112 38,237c22,125 39,232 38,237c-2,5 -167,-419 -367,-944c-381,-1000 -445,-1152 -658,-1543c-229,-420 -504,-815 -703,-1010l-71,-70l86,145c254,429 581,1172 778,1775c99,301 100,313 14,110c-291,-682 -759,-1513 -1081,-1916c-138,-172 -364,-401 -344,-347c4,8 29,46 56,84c87,119 180,281 292,509c96,194 247,551 238,560c-2,2 -34,-49 -72,-113c-240,-409 -559,-807 -781,-974c-128,-97 -120,-95 -420,-94l-260,1l-50,29c-79,46 -162,116 -275,233c-207,212 -392,461 -587,787c-46,77 -85,142 -88,145c-3,3 6,-26 21,-65c142,-379 316,-729 499,-1001c35,-53 62,-99 59,-102c-8,-9 -162,149 -271,279c-125,148 -273,354 -386,535c-240,386 -579,1034 -742,1417c-44,102 -81,185 -83,183c-9,-9 207,-626 298,-854c198,-494 470,-1059 626,-1296c32,-50 3,-23 -97,88c-272,301 -545,728 -814,1272c-130,262 -101,189 -676,1697c-106,279 -194,506 -196,505c-1,-2 18,-115 42,-252c25,-138 44,-254 42,-259c-4,-12 -268,270 -388,414c-115,138 -173,215 -251,328c-32,47 -58,82 -58,78c0,-5 33,-77 74,-160c118,-241 307,-552 507,-838c56,-79 117,-165 136,-193c48,-69 -215,200 -372,380c-256,294 -473,582 -734,975c-142,212 -344,536 -446,712c-21,37 -40,66 -42,64c-5,-4 110,-261 210,-471c317,-667 723,-1311 1227,-1945c94,-117 170,-215 170,-218c0,-2 -65,57 -143,132c-642,607 -1226,1380 -1714,2266c-155,282 -473,943 -460,957c7,6 263,-158 394,-253c300,-215 592,-479 847,-764c50,-56 55,-60 35,-25c-44,80 -213,331 -287,429c-302,399 -716,805 -1157,1136c-90,68 -198,166 -350,317c-739,732 -1157,1317 -1553,2168c-196,421 -274,677 -329,1075c-24,176 -24,625 0,800c71,511 228,890 514,1245c221,275 518,508 858,675c396,195 764,284 1220,298l220,6l-80,13c-116,19 -530,27 -730,15c-93,-6 -262,-25 -375,-43c-412,-64 -595,-38 -733,104c-62,64 -112,167 -129,265c-10,62 -10,94 5,215c51,404 48,699 -8,1032c-33,194 -68,335 -185,745c-170,596 -233,856 -285,1174c-92,560 -83,1034 26,1446c71,269 252,669 476,1058c14,23 23,42 20,42c-9,0 -306,-457 -373,-574c-283,-496 -410,-1053 -391,-1711c13,-423 59,-761 202,-1485c122,-616 142,-777 132,-1060c-11,-294 -40,-457 -172,-975c-116,-457 -157,-684 -189,-1040c-15,-170 -17,-170 -62,4c-85,331 -72,639 46,1067c57,211 74,339 74,589c0,433 -90,896 -291,1495c-75,224 -242,664 -250,657c-1,-2 17,-89 41,-193c110,-469 168,-825 197,-1214c13,-169 7,-599 -8,-639c-8,-21 -20,4 -90,180c-290,730 -456,1395 -528,2109c-35,346 -31,860 11,1230c183,1624 1078,3111 2614,4341c1504,1205 3576,2053 5381,2204c318,26 503,30 749,15zM10375,24090c189,-27 316,-163 390,-415c47,-161 58,-266 52,-505c-12,-482 -149,-1053 -356,-1484c-50,-104 -90,-191 -88,-193c2,-2 50,18 106,43c56,26 104,45 107,42c12,-13 16,-406 5,-658c-18,-414 -52,-795 -102,-1130c-16,-109 -26,-146 -51,-190c-44,-79 -127,-188 -205,-270l-67,-72l40,8c21,3 82,19 134,35c52,15 95,27 96,26c0,-1 -3,-58 -7,-127c-21,-342 -52,-1082 -62,-1505l-2,-90l-116,-7c-276,-16 -789,-129 -1039,-230c-82,-32 -83,-32 -255,-3c-87,15 -135,16 -370,9c-148,-5 -418,-9 -600,-9h-330l-66,-26c-129,-50 -246,-156 -310,-280c-61,-120 -78,-332 -39,-484c53,-209 205,-412 411,-550c210,-141 532,-266 746,-290l62,-7l79,-107c104,-139 151,-215 211,-342c112,-235 121,-428 26,-553c-39,-51 -136,-113 -217,-137c-56,-17 -87,-20 -161,-17c-112,6 -166,25 -312,113c-186,112 -298,217 -454,428c-148,200 -333,526 -384,679c-51,149 -107,345 -114,396c-4,27 -9,40 -15,34c-6,-6 -29,-69 -52,-142l-42,-131l-85,108c-197,248 -320,467 -349,620c-31,168 81,422 269,612c90,92 113,105 206,120c160,24 792,52 935,40c57,-4 105,-7 107,-6c1,2 -25,45 -58,96c-70,108 -70,116 -7,185l43,47l194,-31c106,-17 199,-30 206,-28c7,2 -57,82 -142,178c-153,173 -155,176 -233,335c-145,297 -439,1086 -407,1093c7,1 77,-16 157,-37c79,-22 145,-39 146,-38c1,1 -88,101 -198,222c-221,243 -257,296 -383,558c-121,250 -230,549 -308,845l-35,131l51,6c29,3 78,6 110,8l58,2l-135,118c-216,189 -364,388 -525,707c-143,282 -217,482 -266,713c-84,398 -45,731 104,870c215,202 614,-7 818,-429c140,-291 332,-1034 373,-1443c5,-57 10,-192 10,-300l1,-196l26,30c14,17 50,56 79,87l53,58l84,-168c138,-273 238,-514 322,-774c90,-281 119,-509 90,-722c-8,-65 -13,-121 -11,-124c3,-2 41,21 85,52l80,55l34,-62c133,-240 205,-422 336,-851c106,-347 136,-417 210,-500c41,-45 116,-76 187,-76c144,0 260,115 314,312c32,119 37,166 70,593c11,139 39,377 46,384c2,2 54,-31 117,-73c62,-42 116,-76 119,-76c3,0 -11,39 -32,88c-85,198 -125,364 -162,677c-18,148 -18,882 0,1060c27,278 72,562 101,638l10,25l122,-38c68,-22 124,-38 126,-37c1,2 -38,77 -86,168l-88,166l-36,179c-69,346 -96,592 -104,949c-6,297 2,414 43,574c63,254 202,408 394,440c75,12 85,12 165,1zM18543,17450c235,-643 384,-1216 432,-1669l7,-63l38,148c153,598 357,793 525,500l28,-48l27,93c82,287 209,488 378,597c141,91 280,77 420,-42c146,-125 238,-282 316,-539l33,-109l30,54c105,185 234,170 355,-42c58,-101 150,-374 195,-575c9,-37 10,-30 22,75c37,339 146,787 315,1295c88,264 166,479 171,473c2,-2 -6,-57 -16,-122c-70,-434 -179,-1372 -179,-1536c0,-97 -32,-618 -64,-1040l-5,-65l157,319l158,320l65,-90c36,-49 99,-138 139,-199c112,-168 202,-291 279,-385c39,-46 67,-88 63,-91c-4,-4 -54,-26 -112,-49c-58,-23 -116,-47 -130,-52c-21,-9 22,-21 265,-78c222,-51 309,-76 370,-105c111,-52 245,-97 485,-160c231,-61 343,-96 413,-132c44,-22 47,-26 35,-42c-7,-10 -58,-79 -114,-152c-56,-74 -124,-168 -152,-210l-50,-76l211,108c317,160 481,228 596,247c143,23 595,22 756,-1c331,-49 557,-117 809,-244c585,-292 933,-781 1045,-1469c35,-212 44,-386 38,-687c-7,-329 -23,-514 -92,-1036c-36,-266 -126,-603 -240,-892c-24,-62 -43,-114 -41,-116c5,-5 193,194 264,279c31,36 58,65 59,64c4,-4 41,-428 53,-606c6,-91 13,-318 17,-505c14,-791 -61,-1545 -221,-2242c-30,-130 -54,-194 -195,-532c-88,-212 -159,-386 -158,-387c1,-2 88,76 192,171c105,96 193,175 196,175c7,0 11,-40 31,-270c20,-230 17,-1231 -5,-1480c-30,-340 -69,-592 -118,-757l-22,-73h-292h-292l-16,68c-23,94 -74,191 -116,219c-66,45 -148,25 -201,-49c-29,-40 -80,-179 -80,-219c0,-18 -10,-19 -343,-19h-344l-26,108c-141,572 -174,1209 -112,2172c9,135 19,262 23,283l7,39l174,-182c95,-99 175,-179 177,-177c2,2 -70,197 -160,433c-155,407 -164,435 -180,549c-83,612 -82,1235 3,2060c11,105 24,278 30,386c14,262 40,396 97,511c56,111 139,163 249,156l61,-4l-76,91c-204,243 -326,515 -342,762l-3,42l-117,-78c-179,-119 -316,-241 -457,-406c-262,-307 -400,-538 -511,-860c-39,-115 -116,-403 -108,-410c2,-2 27,38 55,89c68,121 175,282 250,376c73,92 174,202 180,196c15,-15 -213,-861 -349,-1291c-73,-232 -157,-364 -363,-571c-121,-121 -200,-187 -378,-318c-65,-47 -116,-86 -113,-86c16,0 244,77 346,117c113,45 326,148 407,198l41,25l7,-65c10,-88 -9,-232 -45,-349c-16,-54 -37,-134 -46,-179c-36,-191 -257,-560 -493,-826c-85,-95 -79,-97 69,-18c120,64 272,157 375,230l80,57l8,-32c4,-18 10,-107 13,-198c5,-127 2,-181 -9,-235c-44,-201 -151,-386 -392,-679c-55,-67 -106,-129 -114,-139c-22,-28 309,134 472,231c32,19 60,32 62,30c2,-2 9,-64 15,-138c10,-112 9,-157 -4,-264c-13,-116 -19,-139 -59,-220c-86,-179 -204,-348 -385,-556c-55,-63 -99,-116 -97,-118c8,-8 317,152 421,218l109,68l13,-36c18,-51 16,-291 -3,-500c-15,-164 -41,-352 -50,-360c-5,-6 -1217,16 -1343,24l-94,6l109,60c59,33 146,87 193,119c87,59 194,148 187,155c-14,14 -409,-165 -607,-276l-106,-59l-1944,40l-1945,40l-170,84c-172,84 -403,181 -411,172c-8,-7 141,-124 241,-190l90,-59l-370,8c-203,3 -489,9 -635,13l-264,6l-7,40c-21,125 -41,715 -24,715c3,0 35,-19 72,-43c139,-89 458,-255 469,-245c1,2 -32,41 -73,88c-245,276 -414,540 -450,703c-19,82 -24,453 -7,520l9,38l65,-48c95,-69 261,-172 373,-233l99,-53l-87,118c-108,144 -196,287 -273,442c-66,131 -92,205 -122,338c-25,112 -47,365 -34,388c8,14 23,7 107,-52c156,-110 471,-291 484,-277c3,3 -14,27 -38,53c-74,79 -203,246 -274,353c-213,324 -316,643 -341,1058l-7,114l99,-65c206,-134 383,-228 564,-300c170,-67 173,-66 70,13c-185,143 -473,452 -608,652c-145,216 -289,550 -404,938c-39,134 -137,524 -132,529c7,8 148,-116 227,-199c93,-99 178,-214 243,-327c24,-43 44,-70 44,-61c0,33 -60,250 -93,335c-150,388 -515,905 -840,1191c-110,97 -127,106 -127,68c0,-37 -48,-182 -83,-251c-138,-276 -423,-500 -709,-559c-82,-17 -287,-21 -371,-7c-42,7 -47,6 -42,-8c4,-9 17,-56 30,-106c155,-580 29,-1266 -423,-2320c-49,-115 -109,-250 -132,-300l-42,-90l-29,114c-54,209 -126,377 -210,491c-30,40 -40,48 -36,30c12,-54 37,-210 49,-310c17,-141 18,-791 0,-960c-63,-612 -168,-1145 -347,-1765c-35,-121 -73,-247 -84,-279c-12,-33 -20,-60 -18,-62c5,-5 104,150 169,266c228,401 494,989 1040,2295c281,673 521,1236 525,1232c8,-9 -144,-552 -226,-807c-120,-376 -181,-538 -379,-1010c-77,-184 -231,-558 -342,-830c-366,-897 -472,-1135 -602,-1351c-25,-40 -53,-101 -62,-134c-41,-142 -133,-282 -210,-319c-77,-37 -171,-7 -271,87c-35,31 -158,187 -290,365c-126,171 -231,310 -231,309c-1,-1 11,-69 27,-152c15,-82 28,-156 29,-163c1,-32 -385,320 -572,522c-356,385 -591,747 -706,1091c-50,150 -228,923 -396,1725c-154,734 -308,1513 -491,2485c-210,1113 -343,1723 -496,2267c-57,202 -161,516 -214,644c-20,47 -35,87 -33,89c2,1 69,18 151,39c81,21 171,45 200,55l52,18l-45,12c-496,130 -718,247 -986,522c-160,165 -280,340 -383,562c-39,84 -111,258 -111,269c0,2 62,3 138,3c159,1 243,20 377,85c160,78 279,192 349,335c50,100 67,174 73,305c5,101 9,122 35,173c69,138 181,297 289,411l58,61l1,-46c0,-109 58,-318 118,-434l26,-50l7,75c18,214 101,429 232,602c84,112 177,192 343,295c16,9 10,11 -32,6c-70,-7 -264,13 -359,38c-239,62 -406,191 -451,348c-18,61 -21,174 -6,239c6,24 9,42 7,40c-1,-2 -30,-44 -64,-94c-155,-233 -335,-371 -556,-426c-124,-30 -327,-30 -471,0c-220,47 -465,155 -590,260c-180,150 -253,340 -184,477c46,91 37,89 475,94c801,8 780,8 885,-18c52,-13 113,-24 135,-24c23,0 90,19 160,46c384,146 946,257 1155,227c79,-11 126,-35 295,-146c221,-146 463,-358 592,-519c86,-108 130,-199 144,-300c42,-304 -143,-1586 -332,-2305c-80,-304 -131,-435 -269,-691c-50,-92 -90,-170 -90,-174c0,-3 65,43 144,104l144,110l6,-72c3,-40 10,-139 16,-222c25,-352 110,-813 215,-1170c200,-680 929,-2507 1305,-3270c371,-753 634,-1421 721,-1835l29,-135l-5,160c-5,182 -36,407 -95,702c-75,371 -210,899 -319,1248l-48,153l262,641c145,352 266,648 269,658c6,14 18,6 69,-44c95,-92 289,-265 293,-260c2,2 -16,55 -40,118c-53,139 -186,549 -221,679c-38,142 -72,315 -97,500c-29,217 -32,662 -5,865c108,815 467,1444 1017,1786c248,153 549,257 869,299c126,17 397,14 524,-5c215,-32 455,-125 860,-333l177,-90l-66,96c-37,54 -109,152 -161,220c-51,68 -93,127 -93,131c0,12 336,134 710,259c268,89 405,128 615,177c268,62 270,62 235,77c-19,8 -90,36 -157,63c-68,27 -123,53 -123,58c0,17 433,560 547,685l48,54l154,-316c85,-174 155,-315 157,-314c1,2 -2,53 -6,113c-5,61 -20,286 -34,500c-39,585 -45,669 -72,925c-30,289 -73,616 -124,945c-21,138 -42,270 -46,295c-4,25 -4,43 -1,40c2,-3 39,-97 80,-210zM25874,3475l37,-70l-82,-3c-45,-2 -84,0 -87,3c-7,7 37,101 62,132c22,29 23,28 70,-62z"></path><path d="M20364,40945c-8,-21 4,-35 31,-35c28,0 65,-43 65,-76c0,-37 -64,-100 -124,-123c-140,-52 -339,-70 -409,-36c-77,36 -93,109 -36,157l33,28h-32c-90,0 -141,-110 -96,-206c22,-46 86,-99 143,-119c202,-69 534,31 606,181c21,44 21,123 1,162c-28,54 -72,82 -127,82c-34,0 -51,-5 -55,-15z"></path><path d="M22130,40611c-48,-10 -72,-24 -108,-65c-36,-41 -56,-105 -47,-146c10,-46 60,-116 107,-148c97,-67 430,-220 538,-248c169,-43 322,32 322,159c0,49 -22,101 -47,111c-13,4 -14,2 -5,-14c20,-37 12,-90 -18,-120c-65,-65 -152,-50 -371,62c-86,44 -201,100 -255,124c-55,24 -110,53 -123,65c-34,33 -31,78 10,116c42,40 84,53 176,54h76l-43,20c-36,15 -154,42 -172,38c-3,-1 -21,-4 -40,-8z"></path><path d="M18764,40210c-17,-6 -39,-20 -50,-32c-19,-21 -19,-21 1,-13c32,15 90,10 118,-8c15,-10 31,-34 38,-57c37,-124 -103,-250 -351,-315c-119,-31 -370,-75 -428,-75c-150,0 -177,114 -61,261c16,20 29,40 29,44c0,16 -86,-44 -125,-87c-98,-109 -78,-245 45,-312c74,-40 185,-45 379,-17c244,37 400,101 511,211c78,77 95,116 95,216c0,73 -3,84 -28,117c-16,21 -38,44 -50,51c-30,20 -86,27 -123,16z"></path><path d="M16521,40184c-35,-29 -42,-51 -12,-34c33,17 89,12 112,-11c120,-120 -397,-481 -601,-420c-53,16 -79,63 -63,115c9,29 8,34 -4,29c-43,-17 -57,-125 -23,-181c62,-102 292,-111 474,-20c195,98 324,245 334,381c8,106 -40,167 -133,167c-43,0 -60,-5 -84,-26z"></path><path d="M23780,39659c-153,-69 -226,-263 -175,-464c36,-142 159,-338 305,-484c261,-263 580,-406 830,-373c147,20 248,92 263,189c17,106 -67,259 -211,388l-44,39l50,-94c97,-182 116,-291 59,-334c-25,-18 -42,-21 -140,-21c-98,0 -122,4 -189,28c-334,123 -737,531 -788,795c-10,52 -1,134 19,170c16,29 85,90 114,101c37,14 103,14 130,0c12,-6 34,-23 50,-37c31,-29 34,-24 12,18c-45,87 -183,125 -285,79z"></path><path d="M19380,38976c-172,-48 -363,-201 -474,-379c-89,-143 -128,-304 -107,-444c29,-198 155,-316 389,-365c83,-17 122,-19 272,-15c205,7 268,19 514,102c233,79 276,85 536,78c248,-6 305,3 424,65c87,45 190,146 229,222c30,61 57,171 57,237c1,238 -163,475 -346,499l-39,5l40,-22c107,-58 179,-150 217,-272c31,-102 23,-228 -19,-319c-38,-81 -95,-145 -164,-182c-107,-59 -191,-66 -486,-44c-203,15 -275,4 -530,-81c-222,-74 -304,-92 -468,-98c-217,-9 -339,21 -413,101c-54,58 -67,102 -66,216c1,116 31,215 100,338c85,148 250,301 382,353c56,21 24,25 -48,5z"></path><path d="M22458,38807c74,-78 27,-188 -99,-232c-81,-29 -156,-13 -224,47c-42,37 -59,69 -83,158l-9,35l-21,-45c-54,-114 5,-262 132,-327c44,-23 63,-27 136,-27c93,0 143,17 212,74c99,82 107,265 14,321c-17,10 -42,19 -55,19h-24z"></path><path d="M16220,38644c0,-3 21,-29 46,-58c99,-108 107,-154 47,-254c-91,-149 -228,-267 -414,-357c-261,-125 -498,-141 -578,-39c-39,50 -50,142 -25,209c15,40 -24,-5 -51,-58c-29,-59 -32,-121 -10,-188c61,-177 282,-240 581,-164c115,29 276,104 360,168c219,166 354,434 288,573c-23,48 -94,108 -170,144c-67,32 -74,34 -74,24z"></path><path d="M17525,38532c-33,-50 -44,-132 -26,-197c28,-105 138,-185 256,-185c115,0 197,47 241,136c31,63 37,151 14,194c-13,24 -13,24 -37,-30c-44,-100 -113,-150 -205,-150c-108,0 -180,73 -202,201l-12,74z"></path><path d="M26180,38504c-45,-19 -68,-41 -90,-84c-61,-120 -15,-287 95,-344c51,-27 128,-27 172,-1c55,33 89,122 67,180c-5,13 -10,10 -25,-15c-10,-16 -35,-38 -54,-47c-33,-16 -37,-16 -70,0c-40,19 -72,75 -81,139c-5,39 8,96 41,171c9,21 -7,22 -55,1z"></path><path d="M14070,38343c0,-124 -117,-246 -203,-214c-33,13 -67,66 -67,105c0,25 -2,27 -16,15c-48,-40 -59,-134 -21,-189c37,-55 70,-74 140,-78c73,-5 122,15 176,69c54,54 75,105 76,186c0,65 -3,74 -31,109c-44,55 -54,54 -54,-3z"></path><path d="M23905,37931c89,-42 149,-142 149,-251c0,-142 -70,-221 -379,-426c-115,-76 -253,-160 -305,-186c-349,-172 -673,-130 -789,103c-52,105 -51,222 4,332l25,48l-28,-20c-65,-46 -111,-143 -119,-251c-18,-236 140,-428 401,-485c61,-14 106,-16 200,-12c243,11 418,88 735,327c190,143 275,230 328,336c36,73 38,84 38,169c0,81 -4,97 -33,159c-52,111 -135,176 -224,176h-43z"></path><path d="M25185,37449c-45,-13 -105,-67 -126,-113c-12,-27 -19,-64 -19,-111c0,-127 68,-226 228,-332c104,-69 194,-103 292,-110c174,-13 321,84 352,230c15,68 4,120 -33,160l-29,32l6,-28c24,-107 -82,-211 -216,-212c-77,0 -129,18 -255,89c-194,108 -253,212 -185,324c11,18 36,40 55,49c57,27 4,44 -70,22z"></path><path d="M17240,37004c-121,-52 -189,-215 -156,-373c36,-173 174,-307 354,-341c70,-14 238,-9 320,10c65,15 140,64 167,110c28,49 28,157 -1,196c-30,41 -40,39 -36,-5c5,-47 -21,-106 -56,-129c-20,-13 -46,-16 -126,-14c-205,5 -312,38 -392,124c-67,71 -88,126 -88,223c0,93 25,154 74,184c52,31 5,43 -60,15z"></path><path d="M21350,36783c0,-5 19,-14 43,-20c141,-38 250,-190 233,-327c-23,-193 -223,-324 -561,-365c-318,-39 -546,24 -619,171c-45,90 -27,183 49,245l38,32l-37,-9c-50,-11 -100,-52 -133,-108c-24,-40 -28,-58 -28,-122c0,-60 5,-86 27,-133c56,-118 191,-215 355,-254c62,-14 117,-18 263,-17c166,1 195,4 285,27c223,59 388,175 463,325c36,73 37,80 37,181c0,94 -3,112 -27,163c-35,75 -104,148 -174,183c-43,22 -74,29 -135,33c-45,3 -79,1 -79,-5z"></path><path d="M15475,36706c-41,-17 -89,-74 -110,-130c-26,-68 -18,-198 17,-257c74,-126 207,-198 365,-199c92,0 155,17 221,60c99,63 135,164 93,257c-27,59 -90,91 -69,35c15,-38 3,-78 -31,-112c-53,-53 -170,-65 -286,-29c-160,49 -246,220 -178,352c18,36 15,38 -22,23z"></path><path d="M23386,35603c48,-70 16,-150 -78,-197c-65,-33 -151,-35 -206,-7c-76,40 -132,122 -132,196c0,42 -12,39 -37,-8c-10,-20 -16,-55 -16,-93c1,-109 57,-194 161,-242c48,-21 64,-24 140,-20c98,5 149,25 207,83c52,53 69,92 69,160c0,97 -47,165 -113,165c-20,0 -19,-2 5,-37z"></path><path d="M16551,35443c-78,-39 -115,-166 -73,-250c40,-78 115,-123 207,-123c123,0 218,77 240,192c11,58 -1,62 -53,19c-80,-68 -147,-86 -216,-57c-76,32 -99,117 -51,188c14,20 25,39 25,42c0,12 -46,5 -79,-11z"></path><path d="M19276,35330c-45,-54 -57,-131 -32,-213c33,-111 136,-183 261,-181c80,1 125,17 179,64c57,50 80,103 80,180c0,36 -6,76 -13,89l-13,24l-13,-35c-18,-53 -53,-106 -88,-132c-145,-108 -329,-3 -329,189c0,25 -1,45 -3,45c-2,0 -15,-14 -29,-30z"></path><path d="M20958,34227c-42,-34 -61,-90 -62,-183c0,-99 27,-161 92,-211c81,-62 198,-69 304,-19c109,52 169,133 176,242c5,75 -26,157 -68,179l-27,14l14,-44c32,-96 -36,-211 -151,-254c-74,-27 -124,-27 -167,2c-69,45 -111,195 -76,266c19,38 4,41 -35,8z"></path><path d="M18186,32093c-3,-4 79,-28 184,-55c249,-62 415,-110 745,-215c542,-171 727,-208 1045,-208c335,0 490,31 1071,215c283,90 457,140 710,204c115,30 205,56 202,60c-12,12 -330,6 -489,-9c-208,-20 -334,-41 -714,-119c-463,-95 -507,-100 -770,-100c-269,0 -329,8 -800,104c-351,72 -544,103 -745,120c-137,11 -428,13 -439,3z"></path><path d="M17091,31490c-164,-14 -315,-39 -460,-76c-74,-19 -136,-35 -137,-37c-1,-1 122,-2 274,-3c294,0 447,-13 717,-59c363,-63 621,-133 1355,-370c944,-304 1106,-344 1380,-332c230,10 405,55 1157,297c795,256 1110,342 1473,404c287,49 419,60 707,61c271,0 272,0 222,17c-74,25 -256,64 -394,85c-169,25 -640,25 -845,0c-452,-55 -764,-123 -1464,-317c-621,-172 -790,-207 -961,-197c-156,9 -317,46 -841,192c-700,196 -1133,287 -1534,325c-160,15 -525,20 -649,10z"></path><path d="M16920,30237c3,-3 52,-22 110,-42c458,-159 797,-336 1080,-563c126,-101 366,-342 466,-467c236,-296 356,-499 589,-998c48,-103 90,-186 92,-183c8,7 -46,269 -82,401c-112,407 -358,838 -660,1154c-327,343 -787,580 -1290,666c-141,24 -314,42 -305,32z"></path><path d="M23290,30233c-789,-79 -1438,-492 -1845,-1174c-144,-242 -268,-557 -333,-849c-32,-140 -48,-239 -39,-230c3,3 35,73 72,155c146,327 314,636 445,821c253,357 545,644 860,846c245,157 434,244 895,411l70,26l-45,-1c-25,-1 -61,-3 -80,-5z"></path><path d="M14979,29460c-858,-57 -1558,-339 -1827,-737c-38,-56 -82,-143 -82,-162c0,-4 33,25 73,64c93,91 171,144 321,216c438,209 1243,344 1951,326c567,-15 1044,-107 1515,-294c444,-176 847,-421 1235,-751c55,-47 183,-169 284,-271c127,-128 176,-172 156,-141c-66,106 -170,253 -251,355c-111,140 -406,435 -549,549c-582,464 -1285,747 -2066,831c-173,18 -586,27 -760,15z"></path><path d="M24810,29464c-346,-20 -710,-83 -1007,-175c-821,-251 -1538,-774 -1999,-1454c-113,-168 -106,-165 113,53c120,120 273,262 339,316c667,541 1387,839 2279,943c187,21 736,24 955,5c323,-29 658,-84 934,-153c364,-91 631,-226 786,-396c57,-62 60,-53 13,42c-64,128 -183,254 -344,365c-328,225 -792,375 -1349,435c-140,15 -586,27 -720,19z"></path><path d="M15015,28903c-250,-13 -557,-53 -833,-109c-778,-156 -1023,-323 -1098,-744c-22,-127 -20,-367 6,-514c22,-131 81,-318 130,-417c29,-57 137,-229 144,-229c2,0 -16,57 -40,128c-59,176 -74,254 -81,427c-4,127 -2,165 15,248c23,111 65,207 123,285c36,47 113,111 123,101c2,-2 -2,-51 -10,-109c-18,-140 -18,-393 2,-560c100,-881 569,-1699 1342,-2344c639,-533 1341,-827 2142,-897c143,-12 614,-6 725,10c33,4 62,7 63,5c8,-6 -222,-74 -332,-99c-458,-102 -963,-110 -1421,-20c-66,12 -122,22 -123,20c-5,-5 223,-78 338,-109c607,-164 1292,-164 1862,0c231,66 498,182 677,293c65,40 86,49 93,39c23,-34 -12,-237 -72,-421l-39,-122l30,35c58,69 159,227 203,320c129,272 184,539 193,931c8,348 -20,617 -103,1007c-198,925 -686,1659 -1434,2157c-544,362 -1215,603 -1868,670c-130,13 -621,25 -757,18zM15545,28295c333,-54 616,-218 715,-415c130,-258 -45,-510 -423,-609c-483,-126 -1103,75 -1261,409c-28,58 -31,75 -31,155c0,119 27,178 125,268c102,94 248,160 423,192c99,18 342,18 452,0zM17035,27801c58,-26 110,-88 125,-149c23,-98 -34,-208 -128,-248c-56,-24 -149,-15 -200,19c-97,64 -127,195 -67,292c56,91 176,129 270,86zM14663,26073c479,-490 1036,-865 1693,-1138c183,-76 543,-200 819,-280l190,-56l-150,5c-243,9 -521,56 -800,137c-906,262 -1678,873 -2092,1655c-29,55 -53,104 -53,108c0,3 55,-58 122,-136c68,-79 189,-211 271,-295zM18824,25253c18,-109 -2,-235 -51,-325c-31,-57 -113,-138 -171,-167c-99,-50 -231,-64 -351,-36c-103,25 -103,29 6,59c306,87 403,166 508,416c21,49 41,90 45,90c4,0 10,-17 14,-37z"></path><path d="M24745,28899c-995,-47 -2056,-526 -2671,-1206c-503,-557 -786,-1213 -898,-2078c-83,-640 -2,-1218 224,-1605c43,-74 159,-234 165,-228c2,2 -13,58 -34,123c-21,66 -46,162 -55,214c-16,95 -21,201 -10,201c3,0 43,-22 88,-48c315,-188 639,-307 1006,-371c219,-38 320,-46 595,-46c354,1 608,33 925,116c142,38 333,99 327,105c-2,3 -54,-4 -114,-15c-227,-41 -379,-54 -638,-54c-278,0 -434,15 -675,63c-147,29 -389,95 -403,109c-4,4 23,3 60,-2c104,-15 689,-14 813,1c478,59 855,171 1260,374c804,402 1505,1118 1853,1892c238,528 337,1137 261,1599c-10,55 9,48 87,-31c74,-76 117,-155 151,-279c18,-65 21,-106 21,-243c1,-187 -17,-294 -77,-466c-19,-55 -38,-108 -42,-119c-15,-45 80,98 130,195c107,208 154,397 163,656c11,326 -52,541 -201,689c-146,144 -424,251 -911,349c-473,95 -906,128 -1400,105zM24967,28224c65,-38 97,-92 101,-173c5,-85 -23,-142 -91,-188c-87,-59 -184,-53 -259,15c-101,91 -103,227 -6,320c69,65 171,76 255,26zM23958,27946c144,-40 252,-120 300,-224c37,-80 37,-197 -1,-296c-140,-361 -654,-670 -1117,-668c-190,0 -331,47 -426,141c-72,70 -99,137 -99,241c0,159 60,277 224,441c200,199 440,320 741,375c92,16 303,11 378,-10zM25989,26370c-458,-893 -1462,-1571 -2549,-1720c-149,-20 -318,-35 -310,-27c3,3 93,34 200,70c751,250 1249,497 1745,866c327,244 626,529 906,864c41,48 75,87 77,87c2,0 -29,-63 -69,-140zM21585,25154c112,-231 177,-279 503,-374c40,-12 70,-25 67,-30c-12,-20 -158,-43 -239,-37c-249,16 -416,191 -416,437c0,71 8,140 16,140c2,0 33,-61 69,-136z"></path><path d="M12811,27345c-2,-26 43,-303 65,-405c161,-749 658,-1574 1360,-2261c218,-212 417,-377 634,-524l115,-78l-210,214c-287,292 -437,461 -687,769c-384,475 -698,954 -926,1410c-124,247 -166,348 -273,660c-43,124 -78,221 -78,215z"></path><path d="M27481,27262c-97,-281 -181,-482 -303,-727c-347,-695 -863,-1409 -1567,-2169c-86,-93 -178,-194 -206,-225l-50,-55l76,52c381,262 873,750 1208,1197c426,569 700,1132 820,1685c31,141 56,298 49,305c-2,2 -14,-26 -27,-63z"></path><path d="M18973,23353c-51,-71 -178,-235 -283,-367c-105,-131 -189,-241 -186,-244c8,-8 147,83 208,136c122,107 248,272 303,396c27,62 58,171 53,192c-2,8 -45,-43 -95,-113z"></path><path d="M21260,23461c0,-71 63,-227 133,-331c60,-90 167,-209 240,-267c72,-58 184,-129 192,-121c2,2 -91,122 -207,268c-116,146 -240,308 -276,360c-81,119 -82,119 -82,91z"></path><path d="M19246,23319c-49,-113 -143,-270 -262,-434c-353,-488 -459,-720 -487,-1064c-4,-52 -1,-47 93,145c111,229 162,316 369,628c157,238 233,379 275,512c25,80 52,242 44,265c-2,7 -17,-17 -32,-52z"></path><path d="M21050,23343c0,-63 29,-198 60,-285c46,-125 117,-251 298,-527c197,-299 247,-385 348,-598c67,-144 74,-154 74,-117c0,140 -74,396 -169,582c-68,132 -124,219 -286,442c-138,190 -201,289 -271,433c-52,105 -54,108 -54,70z"></path><path d="M19649,22911c-110,-46 -315,-169 -374,-222c-31,-29 -65,-73 -81,-105c-36,-73 -32,-170 9,-232c51,-79 167,-119 264,-93c63,17 159,87 219,159c102,124 205,367 190,448c-15,78 -107,96 -227,45z"></path><path d="M20493,22928c-55,-27 -55,-117 1,-255c74,-181 186,-323 306,-388c47,-26 66,-30 131,-30c67,0 81,4 124,30c70,43 108,117 103,200c-8,126 -81,209 -288,326c-211,119 -309,150 -377,117z"></path><path d="M18740,20793c-222,-75 -347,-383 -242,-596c17,-35 40,-71 50,-81c19,-16 20,-14 26,66c19,218 69,369 186,568c17,29 30,54 28,55c-2,2 -23,-4 -48,-12z"></path><path d="M21540,20803c0,-3 22,-45 49,-93c90,-158 129,-271 151,-432c7,-46 15,-105 19,-133l7,-50l36,55c39,57 68,148 68,211c0,160 -104,345 -231,409c-48,25 -99,42 -99,33z"></path><path d="M18893,20668c-80,-88 -102,-315 -45,-449l20,-44l7,50c14,94 50,155 90,155c12,0 44,-11 71,-25c111,-57 174,-65 314,-40c113,21 250,21 326,1c34,-9 106,-34 160,-57c123,-51 204,-69 319,-69c118,0 199,19 328,73c57,25 131,51 163,58c82,17 222,14 329,-6c115,-22 173,-16 279,30c47,20 93,35 103,33c28,-5 60,-63 74,-135l12,-68l18,40c45,102 44,256 -1,377c-18,48 -64,109 -73,97c-2,-2 -11,-25 -21,-51c-23,-63 -105,-138 -176,-161c-103,-33 -171,-23 -415,64c-97,34 -134,42 -190,43c-79,0 -109,-9 -250,-72c-163,-72 -195,-70 -440,34c-81,34 -99,38 -175,37c-75,0 -99,-5 -200,-42c-192,-71 -238,-83 -310,-78c-37,2 -88,14 -117,27c-64,27 -137,103 -154,159c-7,22 -15,41 -19,41c-4,0 -16,-10 -27,-22z"></path><path d="M19286,19840c59,-111 158,-182 301,-216c98,-24 1041,-24 1149,-1c128,28 228,95 293,196c40,62 39,78 -1,48c-86,-65 -213,-107 -323,-107c-33,0 -139,11 -235,25c-229,32 -374,32 -610,0c-100,-14 -207,-25 -238,-25c-106,0 -220,39 -331,112l-35,22z"></path><path d="M19994,19191c-83,-28 -199,-98 -243,-145l-24,-26h29c16,0 94,11 173,25c183,32 284,32 474,0c83,-15 162,-25 176,-23c24,3 22,6 -34,51c-180,142 -367,182 -551,118z"></path><path d="M19276,15940c-10,-102 9,-516 34,-730c55,-480 170,-920 315,-1211c228,-454 577,-573 861,-294c262,257 445,793 529,1550c20,179 39,630 30,702l-8,58l-34,-135c-285,-1135 -421,-1537 -621,-1836c-103,-153 -176,-205 -259,-182c-50,13 -145,111 -202,206c-192,326 -308,662 -540,1562l-98,385z"></path><path d="M18560,14292c-97,-144 -251,-341 -326,-418c-205,-207 -393,-304 -789,-404l-190,-48l75,-36c398,-190 896,-48 1138,323c65,99 115,217 136,323c16,79 23,328 9,328c-5,0 -28,-31 -53,-68z"></path><path d="M21696,14344c-20,-51 -29,-209 -17,-300c38,-313 216,-564 496,-699c127,-62 188,-76 351,-82c157,-6 247,8 358,54c66,27 166,88 166,101c0,4 -51,13 -113,20c-309,32 -561,119 -739,252c-143,108 -281,287 -423,548c-37,67 -68,122 -70,122c-2,0 -6,-7 -9,-16z"></path><path d="M9426,14099c-3,-17 -6,-71 -6,-119c0,-325 231,-629 560,-740c79,-26 260,-38 336,-22c62,13 164,51 164,60c0,4 -53,24 -117,45c-244,77 -417,180 -579,341c-109,110 -192,217 -286,369c-33,53 -61,97 -63,97c-1,0 -5,-14 -9,-31z"></path><path d="M14342,13364c-188,-168 -388,-474 -503,-767c-202,-520 -245,-1197 -110,-1752c29,-119 94,-322 107,-334c4,-3 4,17 0,44c-3,28 -9,199 -12,380c-11,558 28,960 136,1400c84,343 228,704 386,972c53,90 66,113 62,113c-2,0 -31,-26 -66,-56z"></path><path d="M25910,13418c0,-3 23,-43 51,-89c78,-127 209,-399 267,-551c124,-328 202,-674 248,-1108c21,-201 29,-719 15,-959c-6,-107 -10,-196 -8,-198c8,-7 86,244 111,357c98,445 98,914 0,1360c-99,448 -335,882 -613,1129c-39,35 -71,61 -71,59z"></path><path d="M10523,12776c-27,-24 -62,-68 -78,-98c-27,-48 -30,-62 -30,-143c0,-105 16,-161 225,-832c112,-357 185,-585 463,-1445c28,-87 52,-156 54,-154c2,2 -62,260 -142,575c-454,1783 -437,1712 -442,1861c-3,74 -1,168 4,208c5,39 6,72 2,72c-4,0 -29,-20 -56,-44z"></path><path d="M9941,12428c134,-172 159,-235 428,-1045c131,-397 256,-777 277,-843c20,-66 39,-118 41,-116c7,7 -274,1160 -381,1561c-88,330 -131,423 -224,485c-53,35 -129,60 -183,60h-38z"></path><path d="M15534,12364c24,-62 100,-346 122,-458c19,-96 27,-176 31,-298c6,-183 -4,-291 -43,-482c-14,-65 -23,-120 -21,-122c2,-3 34,27 70,65c284,301 257,887 -56,1218c-29,30 -65,65 -81,76c-28,20 -29,20 -22,1z"></path><path d="M24713,12318c-302,-288 -376,-822 -160,-1156c43,-66 135,-167 144,-158c3,3 -4,44 -15,93c-71,303 -70,610 3,912c22,90 38,148 96,344c4,15 5,27 2,27c-2,0 -34,-28 -70,-62z"></path><path d="M19542,12142c-9,-6 4,-20 45,-47c120,-78 330,-315 544,-613l66,-92l49,52c26,29 143,152 258,274c273,285 390,413 384,419c-10,10 -186,-48 -278,-91c-106,-50 -259,-150 -335,-217l-50,-45l-90,87c-98,95 -212,177 -309,222c-97,45 -249,72 -284,51z"></path><path d="M20197,9963c-36,-247 -63,-475 -97,-813c-74,-743 -88,-823 -181,-1000c-31,-59 -106,-169 -193,-282c-155,-202 -213,-288 -193,-288c25,0 223,102 306,157c104,70 209,167 268,251l45,63l72,-74c77,-79 187,-161 281,-210c100,-51 400,-185 404,-181c7,7 -69,82 -241,240c-316,291 -412,466 -388,714c13,128 12,692 0,865c-17,232 -60,578 -73,591c-2,3 -7,-12 -10,-33z"></path><path d="M10804,7760c14,-76 114,-556 157,-750c158,-713 337,-1297 492,-1605c138,-275 370,-565 699,-873c236,-221 378,-299 523,-290c210,14 344,198 445,608c16,68 28,125 26,127c-2,2 -23,-13 -47,-33c-66,-56 -174,-123 -238,-149c-244,-100 -439,-17 -792,335c-222,221 -319,356 -485,675c-180,345 -432,969 -682,1690c-97,281 -104,299 -98,265z"></path><path d="M18110,7070c38,-31 158,-87 225,-105c72,-20 284,-30 340,-17l40,9l-60,27c-135,61 -341,106 -484,106h-86z"></path><path d="M21949,7075c-122,-20 -301,-77 -345,-109c-17,-13 -14,-15 29,-21c70,-11 252,0 322,19c70,20 167,63 222,100l38,26l-95,-1c-52,-1 -129,-7 -171,-14z"></path><path d="M20145,6630c29,-175 38,-297 39,-515c1,-237 0,-241 -27,-320c-36,-105 -89,-186 -183,-275c-52,-49 -69,-70 -53,-65c51,14 166,75 206,110l42,36l-6,-308c-6,-319 4,-559 33,-768c16,-111 72,-396 80,-404c2,-3 1,29 -3,70c-10,95 -9,709 1,772l7,48l61,-55c51,-46 204,-136 232,-136c5,0 -32,42 -81,93c-122,129 -179,241 -185,372c-1,22 4,117 11,212c26,323 3,652 -60,867c-25,86 -84,242 -105,276l-15,25z"></path><path d="M17870,5790c121,-104 429,-205 605,-198l80,3l-80,39c-145,70 -530,187 -615,186c-25,-1 -24,-1 10,-30z"></path><path d="M22320,5800c-175,-38 -406,-117 -528,-180l-57,-29l81,-1c131,0 298,39 458,109c47,21 186,108 186,117c0,8 -58,2 -140,-16z"></path><path d="M17660,4765c20,-24 147,-101 233,-140c163,-75 389,-136 557,-149c66,-5 73,-4 56,9c-58,45 -458,192 -705,261c-142,39 -159,41 -141,19z"></path><path d="M22505,4749c-228,-61 -522,-167 -660,-237l-80,-41l75,5c247,18 568,127 753,257c31,22 57,41 57,43c0,9 -41,1 -145,-27z"></path><path d="M12764,3865c21,-50 92,-169 122,-205c100,-118 193,-60 244,152c11,45 18,83 17,85c-2,1 -32,-7 -67,-19c-92,-30 -218,-31 -282,-1l-48,22z"></path></g></g></g></svg>